<svg width="28" height="28" viewBox="0 0 28 28" fill="none" xmlns="http://www.w3.org/2000/svg">
<path d="M14 3.5C14.7778 6.61111 16.3334 9.13889 18.6667 11.0833C21 13.0278 22.1667 15.1667 22.1667 17.5C22.1667 19.6659 21.3063 21.7432 19.7747 23.2747C18.2432 24.8063 16.166 25.6667 14 25.6667C11.8341 25.6667 9.75688 24.8063 8.22534 23.2747C6.69379 21.7432 5.83337 19.6659 5.83337 17.5C5.83337 16.2378 6.24275 15.0097 7.00004 14C7.00004 14.7735 7.30733 15.5154 7.85431 16.0624C8.40129 16.6094 9.14316 16.9167 9.91671 16.9167C10.6903 16.9167 11.4321 16.6094 11.9791 16.0624C12.5261 15.5154 12.8334 14.7735 12.8334 14C12.8334 11.6667 11.0834 10.5 11.0834 8.16667C11.0834 6.61111 12.0556 5.05556 14 3.5Z" stroke="white" stroke-width="2.33333" stroke-linecap="round" stroke-linejoin="round"/>
</svg>
